<svg width="139" height="245" viewBox="0 0 139 245" fill="none" xmlns="http://www.w3.org/2000/svg">
<g clip-path="url(#clip0_1515_18856)">
<path d="M6.38889 211.38H0.946045V216.822H6.38889V211.38Z" fill="white"/>
<path d="M6.38889 222.267H0.946045V244.503H6.38889V222.267Z" fill="white"/>
<path fill-rule="evenodd" clip-rule="evenodd" d="M22.6074 227.936C22.6074 221.799 27.5829 216.822 33.7213 216.822C39.8598 216.822 44.8353 221.798 44.8353 227.936H50.2781C50.2781 218.793 42.8652 211.38 33.7213 211.38C24.5775 211.38 17.1646 218.793 17.1646 227.936C17.1646 237.08 24.5775 244.493 33.7213 244.493V239.05C27.5829 239.05 22.6074 234.075 22.6074 227.936Z" fill="white"/>
<path fill-rule="evenodd" clip-rule="evenodd" d="M77.6092 211.381C68.4653 211.381 61.0524 218.794 61.0524 227.938C61.0524 237.082 68.4653 244.495 77.6092 244.495C86.753 244.495 94.1659 237.082 94.1659 227.938C94.1659 218.794 86.7544 211.381 77.6092 211.381ZM77.6092 239.05C71.4707 239.05 66.4952 234.075 66.4952 227.936C66.4952 221.798 71.4707 216.822 77.6092 216.822C83.7476 216.822 88.7231 221.798 88.7231 227.936C88.7231 234.075 83.7476 239.05 77.6092 239.05Z" fill="white"/>
<path d="M37.2181 227.591L33.3594 231.43L46.8663 245.008L50.725 241.169L37.2181 227.591Z" fill="white"/>
<path fill-rule="evenodd" clip-rule="evenodd" d="M121.497 211.381C112.353 211.381 104.94 218.794 104.94 227.938C104.94 237.082 112.353 244.495 121.497 244.495C130.641 244.495 138.054 237.082 138.054 227.938C138.054 218.794 130.641 211.381 121.497 211.381ZM121.497 239.05C115.36 239.05 110.383 234.075 110.383 227.936C110.383 221.798 115.358 216.822 121.497 216.822C127.635 216.822 132.611 221.798 132.611 227.936C132.611 234.075 127.635 239.05 121.497 239.05Z" fill="white"/>
<path d="M134.172 75.5205V75.4498C134.178 73.6795 134.016 39.3811 133.967 28.9098L133.921 15.1057L97.0029 24.7251C96.9513 24.0431 96.8983 23.3406 96.8466 22.6015C96.6958 20.4453 95.3684 18.6328 93.4663 17.8122C93.0288 16.0065 92.3875 14.2851 91.5451 12.6588C87.499 4.85182 79.0521 0 69.5006 0C63.263 0 57.3867 2.05839 52.9534 5.79338C49.2537 8.91018 46.6939 13.0895 45.5418 17.8108C43.6369 18.6288 42.3068 20.444 42.1533 22.6029C42.0989 23.3882 42.0432 24.1355 41.9889 24.8556L5.07914 15.0337L5.03295 28.524L5.02208 31.0036C4.89029 59.3468 4.82507 74.3004 4.82779 75.4498V75.5232C2.38354 76.9539 0.944702 79.5028 0.944702 82.7812V111.921C0.944702 115.531 2.78163 117.368 3.88079 118.145C5.03838 118.963 6.45005 119.393 7.96632 119.393C8.88886 119.393 9.86032 119.229 10.897 118.915L11.4391 119.955C15.6265 127.96 22.4253 133.923 36.0895 144.265L36.3164 144.435L69.4925 166.768L102.688 144.432L102.92 144.26C116.575 133.923 123.375 127.96 127.559 119.955L128.102 118.921C129.144 119.23 130.108 119.388 131.029 119.388C132.546 119.388 133.96 118.956 135.123 118.137C136.216 117.362 138.054 115.525 138.057 111.918V82.735C138.057 79.4783 136.616 76.9417 134.173 75.5205H134.172Z" fill="black"/>
<path d="M26.413 106.263V99.1383C26.413 98.0351 25.9035 97.209 24.8967 96.6859C20.3845 94.3368 16.3384 91.9971 12.5368 89.5325V83.8478C14.8792 83.7065 17.2351 83.5747 19.6006 83.4511V89.3939L19.8968 89.364C21.981 89.1507 24.0896 88.951 26.1671 88.7676L26.413 88.7458V81.8152C26.413 80.9987 26.1657 80.3384 25.6766 79.856C25.0081 79.1971 23.8886 78.8873 22.3261 78.8968C18.1196 78.9688 13.9444 79.0517 9.80863 79.1427C7.17688 79.193 5.84267 80.4158 5.84267 82.7799V90.7132C5.84267 91.9686 6.33315 92.9319 7.30052 93.5746C11.1062 96.0636 15.1306 98.3924 19.6006 100.693V106.489C17.2447 107.082 14.8724 107.728 12.5368 108.409V101.572L12.2067 101.648C10.151 102.122 8.07633 102.627 6.04375 103.152L5.84131 103.203V111.917C5.84131 112.987 6.13206 113.736 6.70542 114.141C7.0383 114.376 7.45541 114.494 7.96356 114.494C8.50431 114.494 9.14832 114.361 9.90238 114.093C13.9988 112.665 18.2025 111.366 22.4008 110.233C25.1005 109.502 26.413 108.202 26.4116 106.26L26.413 106.263ZM21.125 43.593V75.2596L21.39 75.2651C23.4782 75.3004 25.5733 75.3344 27.6752 75.3656L27.9483 75.3697V45.3403L27.7418 45.2927C25.6548 44.7982 23.5435 44.2574 21.466 43.6868L21.125 43.593ZM15.2338 75.3208C15.2284 73.3765 15.4403 28.5593 15.4403 28.5593L41.9426 35.6136C41.9426 35.5416 41.9399 35.4736 41.944 35.4002C42.0812 33.4071 42.2184 31.6721 42.3543 30.024L16.8561 23.2374L9.95673 21.4005L9.93227 28.5403C9.93227 28.7862 9.72032 73.4417 9.72711 75.4363C11.5505 75.3955 13.3887 75.3575 15.2338 75.3208ZM48.6762 82.5652L48.9398 82.5598V78.5748H48.6694C42.7836 78.621 36.8924 78.6821 31.1588 78.7623L30.8939 78.765V108.167L31.22 108.096C37.0283 106.839 42.9657 105.86 48.8664 105.182L49.1042 105.156V101.17L48.8093 101.199C45.1328 101.568 41.4222 102.043 37.7769 102.61V94.4985C40.8747 94.1778 44.02 93.9006 47.1314 93.6751L47.38 93.6574V89.7159L47.0961 89.7322C43.9847 89.9102 40.8516 90.129 37.7769 90.3803V82.8641C41.3788 82.7446 45.0445 82.644 48.6776 82.5652H48.6762ZM54.7807 75.6333V49.5699L54.5334 49.5495C52.4642 49.3783 50.3637 49.1677 48.2917 48.9245L47.9914 48.8878V63.4174C47.9914 63.5166 47.9969 63.6226 48.0091 63.7381C44.6382 58.2436 41.5744 52.9584 38.6682 47.6297L38.6057 47.5155L38.478 47.4924C36.618 47.1691 34.7471 46.8145 32.921 46.4381L32.5977 46.3715V75.4336L32.864 75.4363C34.9223 75.4621 36.9862 75.4879 39.0554 75.5083L39.3272 75.511V59.9868C39.3272 59.8998 39.3231 59.8075 39.3149 59.7096C42.1899 64.8359 45.2578 70.0084 48.6612 75.4689L48.74 75.5939H48.8881C50.759 75.6088 52.634 75.6197 54.509 75.6306H54.7794L54.7807 75.6333ZM52.9533 78.549V104.761L53.2454 104.733C55.3772 104.54 57.5361 104.386 59.6638 104.269L59.9179 104.255V82.2894C62.4423 82.2663 64.9694 82.25 67.4965 82.2459V89.6235C65.4803 89.6344 63.4422 89.6602 61.4314 89.7037L61.1678 89.7091V92.3137L63.6895 96.3924C65.2289 98.8815 66.7683 101.371 68.3077 103.877L68.3865 104.006H68.5373C70.7696 103.996 73.0236 104.025 75.2437 104.095L75.7423 104.111L75.4815 103.686C73.1133 99.8258 70.7071 95.9862 68.6365 92.6941C70.616 92.6778 71.7859 92.6045 72.3973 92.4604C73.7573 92.1317 74.4475 91.3626 74.4475 90.1738V81.0761C74.4475 79.3683 73.0508 78.5014 70.2981 78.5014C64.6542 78.5014 58.9043 78.515 53.2196 78.5476H52.9533V78.549ZM79.0249 78.5164V104.254L79.2789 104.267C81.4066 104.381 83.5656 104.538 85.6973 104.729L85.9894 104.756V78.549H85.7231C83.5818 78.5354 81.4392 78.5259 79.2939 78.5191H79.0235L79.0249 78.5164ZM108.59 108.273L108.916 108.345V103.956L108.698 103.913C105.061 103.209 101.342 102.593 97.6468 102.084V94.1479C100.738 94.4319 103.853 94.7648 106.91 95.1411L107.212 95.1778V90.9156L106.969 90.8925C103.886 90.5923 100.751 90.326 97.6468 90.1031V82.75C101.22 82.8546 104.863 82.9837 108.474 83.1332L108.754 83.1454V78.7732L108.488 78.7691C102.73 78.6889 96.8412 78.6251 90.9853 78.5802H90.7135V105.248L90.9513 105.277C96.8547 105.981 102.788 106.989 108.588 108.271L108.59 108.273ZM96.6387 135.964L69.4938 154.226L42.3624 135.964C30.3137 126.844 24.5108 121.816 21.1753 116.055C19.3696 116.569 17.5694 117.116 15.78 117.688C19.4593 124.725 25.6236 130.203 39.0378 140.356L39.16 140.447L39.2878 140.533L66.4191 158.795L69.4938 160.866L72.5685 158.796L99.7134 140.533L99.8411 140.447L99.9634 140.355C113.378 130.202 119.541 124.723 123.218 117.687C121.43 117.116 119.63 116.57 117.826 116.054C114.492 121.813 108.689 126.843 96.6401 135.964H96.6387ZM97.0545 35.4628L123.559 28.558C123.559 28.558 123.769 72.4621 123.766 74.0097C123.815 74.1985 123.864 74.3874 123.913 74.5776L124.106 75.3276C125.83 75.3615 127.553 75.3982 129.263 75.4349C129.266 75.4349 129.269 75.4349 129.271 75.4349C129.278 73.439 129.068 28.7849 129.065 28.539L129.042 21.4385L122.171 23.2279L96.6319 29.8813C96.7719 31.5715 96.9132 33.3487 97.0531 35.4002C97.0531 35.422 97.0531 35.441 97.0531 35.4614L97.0545 35.4628ZM126.698 90.2037C128.729 90.4455 130.8 90.7078 132.851 90.9822L133.156 91.023V82.7364C133.156 80.4022 131.812 79.1944 129.164 79.1455C125.028 79.0531 120.853 78.9702 116.645 78.8995C115.119 78.89 114.001 79.1984 113.335 79.8547C112.838 80.3452 112.585 81.0177 112.587 81.856V88.5013C112.587 89.5407 113.081 90.4646 114.061 91.2485C118.47 94.7335 122.527 98.3421 126.463 102.281V108.411C124.127 107.731 121.755 107.085 119.399 106.491V100.069L119.182 100.026C117.107 99.6179 114.994 99.2293 112.901 98.8734L112.587 98.819V106.262C112.587 108.178 113.926 109.513 116.572 110.228C120.769 111.36 124.974 112.657 129.069 114.085C129.832 114.355 130.482 114.49 131.029 114.49C131.539 114.49 131.959 114.372 132.293 114.135C132.866 113.732 133.156 112.985 133.156 111.918V103.413C133.156 102.131 132.682 100.993 131.743 100.026C127.819 95.974 123.781 92.2757 119.398 88.7255V83.4497C121.765 83.5734 124.119 83.7052 126.462 83.8465V90.1738L126.699 90.201L126.698 90.2037ZM47.1952 37.1978C47.0988 38.5904 47.0037 42.1583 46.9072 43.5509C46.8012 45.0659 48.0988 46.0686 49.8107 45.8335C56.5375 44.9069 63.0224 44.4341 69.4992 44.4055C75.976 44.4341 82.4609 44.9069 89.1877 45.8335C90.8983 46.0686 92.1972 45.0659 92.0912 43.5509C91.9948 42.1583 91.8997 38.5904 91.8045 37.1978C91.7774 36.8078 92.9798 36.0714 92.954 35.6829C92.6225 30.8582 92.2909 27.6409 91.9608 22.9467C91.9363 22.5961 91.6728 22.3054 91.3249 22.2537C90.613 22.1437 89.8997 22.0431 89.1864 21.9453C88.9676 19.3557 88.2734 16.9957 87.1946 14.9128C83.9569 8.66292 77.2518 4.90076 69.5006 4.90076C59.1665 4.90076 50.6884 11.5881 49.8161 21.944C49.1028 22.0431 48.3882 22.1437 47.6762 22.2524C47.3284 22.3054 47.0662 22.5961 47.0404 22.9453C46.7102 27.6395 46.3787 30.8568 46.0472 35.6815C46.02 36.0701 47.2224 36.8065 47.1966 37.1964L47.1952 37.1978ZM90.3114 26.9914C90.6768 26.9914 90.9744 27.3012 90.9744 27.6816C90.9744 28.0621 90.6768 28.3718 90.3114 28.3718C89.9459 28.3718 89.6483 28.0621 89.6483 27.6816C89.6483 27.3012 89.9445 26.9914 90.3114 26.9914ZM90.3114 31.1381C90.6768 31.1381 90.9744 31.4479 90.9744 31.8283C90.9744 32.2087 90.6768 32.5185 90.3114 32.5185C89.9459 32.5185 89.6483 32.2087 89.6483 31.8283C89.6483 31.4479 89.9445 31.1381 90.3114 31.1381ZM53.6245 21.2035C56.3744 20.357 59.1067 19.8516 61.8377 19.5146C63.2031 19.3204 64.5659 19.2443 65.93 19.1383C67.1107 19.0772 68.2914 19.0527 69.4707 19.0364C70.6514 19.0527 71.8307 19.0772 73.0114 19.1383C74.3755 19.2456 75.7382 19.3217 77.1037 19.5146C79.8333 19.8516 82.5656 20.357 85.3169 21.2035C85.3196 21.2551 85.3223 21.3054 85.325 21.357C80.0575 20.7945 74.7654 20.5296 69.472 20.554C64.1786 20.5296 58.8853 20.7959 53.619 21.357C53.6218 21.3054 53.6245 21.2551 53.6258 21.2035H53.6245ZM50.937 24.5648C57.0891 23.7714 63.2806 23.3746 69.4707 23.3746C75.6608 23.3746 81.8523 23.7714 88.0043 24.5648C88.185 27.7713 88.3644 30.9778 88.5451 34.1842C82.2137 33.3677 75.8415 32.9601 69.4707 32.9601C63.0999 32.9601 56.7277 33.3677 50.3963 34.1842C50.577 30.9778 50.7563 27.7713 50.937 24.5648ZM69.4707 35.6856C76.3007 35.7046 83.1335 36.1869 89.9174 37.1394C89.9201 37.1774 89.9214 37.2168 89.9241 37.2548C86.4894 37.1842 83.0207 37.4097 79.5398 37.3187C77.7994 37.2915 76.0562 37.2249 74.3116 37.2222C72.6989 37.2005 71.0848 37.1828 69.4707 37.1978C67.8566 37.1828 66.2425 37.2005 64.6297 37.2222C62.8852 37.2263 61.1407 37.2929 59.4016 37.3187C55.9206 37.4097 52.4519 37.1842 49.0172 37.2548C49.0199 37.2168 49.0213 37.1788 49.024 37.1394C55.8092 36.1869 62.6406 35.7046 69.4707 35.6856ZM48.63 26.9914C48.9968 26.9914 49.293 27.3012 49.293 27.6816C49.293 28.0621 48.9968 28.3718 48.63 28.3718C48.2632 28.3718 47.967 28.0621 47.967 27.6816C47.967 27.3012 48.2645 26.9914 48.63 26.9914ZM48.63 31.1381C48.9968 31.1381 49.293 31.4479 49.293 31.8283C49.293 32.2087 48.9968 32.5185 48.63 32.5185C48.2632 32.5185 47.967 32.2087 47.967 31.8283C47.967 31.4479 48.2645 31.1381 48.63 31.1381ZM65.5169 125.435H65.9517V124.768H65.5169V125.435ZM62.3553 120.855V118.177C62.3553 117.528 62.0537 117.005 61.5632 116.879V116.847C62.0537 116.721 62.3553 116.214 62.3553 115.565V113.125C62.3553 112.126 61.6746 111.445 60.676 111.445H56.0185V122.535H60.676C61.6746 122.535 62.3553 121.854 62.3553 120.855ZM59.979 120.27C59.979 120.301 59.9627 120.317 59.9314 120.317H58.3948V117.91H59.9314C59.9627 117.91 59.979 117.926 59.979 117.957V120.27ZM59.979 115.801C59.979 115.832 59.9627 115.849 59.9314 115.849H58.3948V113.663H59.9314C59.9627 113.663 59.979 113.679 59.979 113.71V115.801ZM86.4935 130.02V108.876C86.4935 108.41 86.1144 108.031 85.6498 108.031H53.3487C52.884 108.031 52.5049 108.41 52.5049 108.876V130.02C52.5049 130.486 52.884 130.865 53.3487 130.865H85.6498C86.1144 130.865 86.4935 130.486 86.4935 130.02ZM84.8223 129.192H54.1775V109.703H84.8223V129.192ZM73.4597 117.069L73.5073 117.354L74.8062 122.535H75.7097L77.0249 117.354L77.0725 117.069V122.535H79.37V111.445H76.6295L75.2668 116.942L73.904 111.445H71.1636V122.535H73.4611V117.069H73.4597ZM65.2697 122.566H68.2479C69.2465 122.566 69.9272 121.885 69.9272 120.887V116.198H66.5522V118.415H67.5509V120.268C67.5509 120.3 67.5346 120.316 67.5033 120.316H66.0142C65.983 120.316 65.9667 120.3 65.9667 120.268V113.71C65.9667 113.679 65.983 113.663 66.0142 113.663H67.5033C67.5346 113.663 67.5509 113.679 67.5509 113.71V115.009H69.9272V113.092C69.9272 112.093 69.2465 111.413 68.2479 111.413H65.2697C64.271 111.413 63.5903 112.093 63.5903 113.092V120.887C63.5903 121.885 64.271 122.566 65.2697 122.566ZM82.9813 123.392H56.0171V127.449H82.9813V123.392ZM63.9327 126.506L63.9395 126.4L63.5469 125.59H63.4762V126.377L63.5414 126.507H62.9762L63.0414 126.377V124.465L62.9762 124.335H63.5414L63.4762 124.465V125.157H63.5523L63.9395 124.44L63.9327 124.336H64.4979L64.3933 124.469L63.9232 125.317L64.4314 126.34L64.5645 126.507H63.9341L63.9327 126.506ZM65.8417 126.506L65.8498 126.366L65.6678 125.87H65.5156V126.377L65.5808 126.507H65.0156L65.0808 126.377V124.465L65.0156 124.335H66.0794L66.3838 124.639V125.567L66.1161 125.835L66.3118 126.342L66.4273 126.507H65.8403L65.8417 126.506ZM68.078 126.506L68.1039 126.346L68.0482 126.134H67.4558L67.4001 126.346L67.4259 126.506H66.8824L66.9381 126.387L67.4517 124.46L67.4041 124.334H68.0998L68.0522 124.46L68.5658 126.387L68.6215 126.506H68.078ZM70.3946 124.835L70.2641 124.77H69.612V125.209H70.0468L70.1772 125.143V125.709L70.0468 125.643H69.612V126.378L69.6772 126.509H69.112L69.1772 126.378V124.467L69.112 124.336H70.3932V124.836L70.3946 124.835ZM72.2424 124.835L72.1119 124.77H71.7641V126.377L71.8293 126.507H71.2641L71.3294 126.377V124.77H70.9829L70.8525 124.835V124.335H72.241V124.835H72.2424ZM74.0453 126.203L73.741 126.507H73.0019L72.6975 126.203V124.639L73.0019 124.335H73.741L74.0453 124.639V126.203ZM76.0236 126.506H75.5018L75.0453 125.338V126.376L75.1105 126.506H74.5453L74.6105 126.376V124.464L74.5453 124.334H75.0671L75.5236 125.502V124.464L75.4584 124.334H76.0236L75.9583 124.464V126.377L76.0236 126.507V126.506ZM73.1337 126.073H73.6119V124.77H73.1337V126.073ZM82.9813 111.445H80.605V122.535H82.9813V111.445ZM67.5645 125.717H67.9395L67.752 124.995L67.5645 125.717ZM92.8956 75.5762V48.6527L92.5926 48.6922C90.4771 48.9639 88.3236 49.2016 86.1919 49.3987L85.9473 49.4218V75.6251H86.2177C88.3589 75.6102 90.4948 75.5952 92.6293 75.5789H92.8956V75.5762ZM79.0059 51.2356C77.4882 50.4476 75.4543 50.0943 72.7981 50.1378C68.449 50.2166 64.0401 50.1378 59.691 49.9027L59.4084 49.8878V75.6523H59.676C62.9409 75.6645 66.2085 75.67 69.4775 75.67C70.5848 75.67 71.6948 75.67 72.8021 75.6686C75.3918 75.6672 77.4814 75.2257 79.014 74.3575C80.6009 73.4594 81.4039 72.1972 81.4053 70.6075V54.8673C81.4053 53.2804 80.5982 52.0576 79.0059 51.2356ZM74.3755 70.0546C74.3755 71.2937 73.1418 71.9227 70.7084 71.9255C69.256 71.9268 67.805 71.9255 66.3539 71.9214V53.8877C67.843 53.9108 69.362 53.9162 70.8769 53.9067C72.4394 53.8932 73.472 54.1472 73.9842 54.6554C74.2478 54.9176 74.3769 55.2505 74.3769 55.6744V70.0546H74.3755ZM102.609 75.4797L102.818 75.477L102.867 75.2746C103.277 73.5749 103.688 71.8602 104.096 70.1334C106.583 70.0179 109.102 69.8861 111.594 69.7434C111.999 71.5219 112.403 73.3167 112.808 75.1279L112.856 75.3412L113.075 75.3384C115.155 75.3058 117.229 75.2719 119.295 75.2338L119.636 75.2284L119.551 74.8982C116.971 64.825 114.329 55.1975 111.473 45.4653L111.401 45.2194L111.152 45.2778C108.962 45.7955 106.728 46.2805 104.511 46.718L104.348 46.7506L104.304 46.9109C101.708 56.3048 99.0123 65.5356 96.0613 75.1292L96.049 75.5477L96.3208 75.545C98.4226 75.5259 100.519 75.5042 102.613 75.4797H102.609ZM107.818 54.1445C108.746 57.9135 109.664 61.7218 110.554 65.4881C108.709 65.643 106.859 65.787 105.042 65.9174C105.977 62.033 106.909 58.0792 107.818 54.1445ZM81.0276 143.087V141.299H81.749V140.093H81.0276V137.238H79.6757V140.093H78.1485L80.3604 133.657V133.602H78.9175L76.5602 140.457V141.299H79.6757V143.087H81.0276ZM62.0537 136.275V134.438C62.0537 133.865 61.7643 133.578 61.1869 133.578H58.4057C57.8282 133.578 57.5388 133.865 57.5388 134.438V136.547H58.926V134.783H60.6529V136.534L57.441 142.182V143.062H62.0401V141.82H59.1366L61.7425 137.268C61.9491 136.904 62.051 136.574 62.051 136.274L62.0537 136.275ZM64.8009 133.579C64.2276 133.579 63.9409 133.87 63.9409 134.452V142.196C63.9409 142.773 64.2221 143.063 64.7833 143.063H67.7411C68.3104 143.063 68.5957 142.773 68.5957 142.196V134.452C68.5957 133.87 68.3104 133.579 67.7411 133.579H64.8023H64.8009ZM67.2071 141.845H65.3349V134.798H67.2071V141.845ZM75.0575 136.275V134.438C75.0575 133.865 74.7682 133.578 74.1907 133.578H71.4095C70.8321 133.578 70.5427 133.865 70.5427 134.438V136.547H71.9312V134.783H73.6581V136.534L70.4462 142.182V143.062H75.0467V141.82H72.1432L74.7491 137.268C74.9556 136.904 75.0575 136.574 75.0575 136.274V136.275Z" fill="white"/>
<path d="M117.774 185.793H21.2264V186.629H117.774V185.793Z" fill="white"/>
</g>
<defs>
<clipPath id="clip0_1515_18856">
<rect width="137.108" height="245" fill="white" transform="translate(0.946045)"/>
</clipPath>
</defs>
</svg>
